<?xml version="1.0" encoding="utf-8"?>
<!-- Generator: Adobe Illustrator 24.1.2, SVG Export Plug-In . SVG Version: 6.00 Build 0)  -->
<svg version="1.1" xmlns="http://www.w3.org/2000/svg" xmlns:xlink="http://www.w3.org/1999/xlink" x="0px" y="0px"
	 viewBox="0 0 256 256" style="enable-background:new 0 0 256 256;" xml:space="preserve">
<style type="text/css">
	.st0{fill:none;}
	.st1{fill:#9E0000;}
	.st2{fill:url(#Новый_образец_узора_3);}
	.st3{display:none;}
	.st4{display:inline;fill:#7F2929;}
	.st5{display:inline;}
	.st6{fill:#7F2929;}
</style>
<pattern  y="256" width="256" height="256" patternUnits="userSpaceOnUse" id="Новый_образец_узора_3" viewBox="0 -256 256 256" style="overflow:visible;">
	<g>
		<rect y="-256" class="st0" width="256" height="256"/>
		<polygon points="0,-143.8 0,-135.5 135.5,0 143.8,0 		"/>
		<polygon points="0,-120.5 0,-112.2 112.2,0 120.5,0 		"/>
		<polygon class="st1" points="0,-167 0,-158.8 158.8,0 167,0 		"/>
		<polygon class="st1" points="0,-97.2 0,-89 89,0 97.2,0 		"/>
		<polygon points="0,-190.3 0,-182.1 182.1,0 190.3,0 		"/>
		<polygon points="0,-213.6 0,-205.3 205.3,0 213.6,0 		"/>
		<polygon class="st1" points="4.1,-256 0,-256 0,-251.9 251.9,0 256,0 256,-4.1 		"/>
		<polygon class="st1" points="256,-251.9 256,-256 251.9,-256 		"/>
		<polygon points="0,-73.9 0,-65.7 65.7,0 73.9,0 		"/>
		<polygon points="0,-50.7 0,-42.4 42.4,0 50.7,0 		"/>
		<polygon class="st1" points="0,-4.1 0,0 4.1,0 		"/>
		<polygon points="0,-27.4 0,-19.1 19.1,0 27.4,0 		"/>
		<polygon points="143.8,-256 135.5,-256 256,-135.5 256,-143.8 		"/>
		<polygon class="st1" points="167,-256 158.8,-256 256,-158.8 256,-167 		"/>
		<polygon points="190.3,-256 182.1,-256 256,-182.1 256,-190.3 		"/>
		<polygon points="213.6,-256 205.3,-256 256,-205.3 256,-213.6 		"/>
		<polygon points="236.9,-256 228.6,-256 256,-228.6 256,-236.9 		"/>
		<polygon class="st1" points="97.2,-256 89,-256 256,-89 256,-97.2 		"/>
		<polygon points="50.7,-256 42.4,-256 256,-42.4 256,-50.7 		"/>
		<polygon points="27.4,-256 19.1,-256 256,-19.1 256,-27.4 		"/>
		<polygon points="0,-236.9 0,-228.6 228.6,0 236.9,0 		"/>
		<polygon points="120.5,-256 112.2,-256 256,-112.2 256,-120.5 		"/>
		<polygon points="73.9,-256 65.7,-256 256,-65.7 256,-73.9 		"/>
	</g>
</pattern>
<g id="Слой_2">
	<g>
		<polygon class="st2" points="0,112.2 0,120.5 135.5,256 143.8,256 		"/>
		<polygon class="st2" points="0,135.5 0,143.8 112.2,256 120.5,256 		"/>
		<polygon class="st2" points="0,89 0,97.2 158.8,256 167,256 		"/>
		<polygon class="st2" points="0,158.8 0,167 89,256 97.2,256 		"/>
		<polygon class="st2" points="0,65.7 0,73.9 182.1,256 190.3,256 		"/>
		<polygon class="st2" points="0,42.4 0,50.7 205.3,256 213.6,256 		"/>
		<polygon class="st2" points="4.1,0 0,0 0,4.1 251.9,256 256,256 256,251.9 		"/>
		<polygon class="st2" points="256,4.1 256,0 251.9,0 		"/>
		<polygon class="st2" points="0,182.1 0,190.3 65.7,256 73.9,256 		"/>
		<polygon class="st2" points="0,205.3 0,213.6 42.4,256 50.7,256 		"/>
		<polygon class="st2" points="0,251.9 0,256 4.1,256 		"/>
		<polygon class="st2" points="0,228.6 0,236.9 19.1,256 27.4,256 		"/>
		<polygon class="st2" points="143.8,0 135.5,0 256,120.5 256,112.2 		"/>
		<polygon class="st2" points="167,0 158.8,0 256,97.2 256,89 		"/>
		<polygon class="st2" points="190.3,0 182.1,0 256,73.9 256,65.7 		"/>
		<polygon class="st2" points="213.6,0 205.3,0 256,50.7 256,42.4 		"/>
		<polygon class="st2" points="236.9,0 228.6,0 256,27.4 256,19.1 		"/>
		<polygon class="st2" points="97.2,0 89,0 256,167 256,158.8 		"/>
		<polygon class="st2" points="50.7,0 42.4,0 256,213.6 256,205.3 		"/>
		<polygon class="st2" points="27.4,0 19.1,0 256,236.9 256,228.6 		"/>
		<polygon class="st2" points="0,19.1 0,27.4 228.6,256 236.9,256 		"/>
		<polygon class="st2" points="120.5,0 112.2,0 256,143.8 256,135.5 		"/>
		<polygon class="st2" points="73.9,0 65.7,0 256,190.3 256,182.1 		"/>
	</g>
</g>
<g id="Слой_1" class="st3">
	<path class="st4" d="M230.9,51.3c-0.1-1.6,0.1-4.6-1.6-5.6c-1-0.6-1.8,0-3.5-0.4c-1.3-0.3-3.5-1.4-4.1-3.3
		c-0.7-2.2,1.5-3.6,1.7-8.8c0-0.3,0-0.6,0-0.6c0-1.6-0.4-1.9-0.5-3.4c-0.1-1.2,0.1-1.6-0.3-2.4c-3.7-7.4-8.5-8.1-8.5-8.1
		c-3.1-0.4-5.5,1.3-7,2.3c-1.1,0.7-2.9,2.3-4.2,4.8c-0.1,0.3-0.6,0.8-0.7,1.6c-0.6,5.5-0.6,6.3-0.6,6.3c0.4,6,1.1,6.9,0.2,8.1
		c-0.7,0.9-2.1,1.8-3.6,1.9c-0.3,0-0.9-0.2-1.7-0.2c0,0-0.6,0.1-1.2,0.2c-1.4,0.5-3.6,5.8-1.9,11.2c1.3,4.2,4.4,6.7,4.6,6.5
		c0.2-0.2-2.5-2.7-2.2-6.1c0.3-2.6,2.4-5.5,4.1-5.3c0.1,0,0.5,0.1,0.9,0.4c1.7,1.4,1,4.5,1.2,6.9c0.6,5.6,2.4,9.8,2.8,9.8
		c0.5-0.1-1-6,0.9-13.6c0.5-2,1.3-4.2,1.7-4.1c0.6,0.1-0.3,3.9,0.9,9.4c0.7,3.1,1.3,3.7,1.7,6.7c0.4,3.4-0.1,5.6,0.2,5.6
		c0.4,0.1,1.9-3.6,2.3-7.9c0.3-3.6-0.4-4.6,0.2-7.9c0.4-2.4,1.5-5.9,2.5-5.9c1.2,0.1,1.8,5.8,2,9.1c0.2,5.6-0.7,9.4-0.4,9.4
		c0.4,0.1,3.1-6.1,3-11.1c0-0.5-0.1-2.2,0.9-4c0.3-0.6,1-1.8,1.9-1.8c1.5,0,2.9,3.7,3.4,6.5c0.7,4-0.4,6.4,0.1,6.6
		C226.9,64.7,231.3,58.5,230.9,51.3z M207.3,34.5c-1.3-0.6-1.9-2.3-1.7-2.5s0.8,0.5,2.4,1.2c1.4,0.6,2.2,0.6,2.2,0.8
		C210.2,34.4,208.6,35.1,207.3,34.5z M217.9,34.9c-1.5,0.6-3.4-0.1-3.4-0.4c0-0.2,0.9-0.2,2.6-0.8c1.9-0.7,2.5-1.4,2.8-1.2
		C220.1,32.7,219.4,34.3,217.9,34.9z"/>
	<path class="st4" d="M56.6,203.4c-0.1-1.6,0.1-4.6-1.6-5.6c-1-0.6-1.8,0-3.5-0.4c-1.3-0.3-3.5-1.4-4.1-3.3
		c-0.7-2.2,1.5-3.6,1.7-8.8c0-0.3,0-0.6,0-0.6c0-1.6-0.4-1.9-0.5-3.4c-0.1-1.2,0.1-1.6-0.3-2.4c-3.7-7.4-8.5-8.1-8.5-8.1
		c-3.1-0.4-5.5,1.3-7,2.3c-1.1,0.7-2.9,2.3-4.2,4.8c-0.1,0.3-0.6,0.8-0.7,1.6c-0.6,5.5-0.6,6.3-0.6,6.3c0.4,6,1.1,6.9,0.2,8.1
		c-0.7,0.9-2.1,1.8-3.6,1.9c-0.3,0-0.9-0.2-1.7-0.2c0,0-0.6,0.1-1.2,0.2c-1.4,0.5-3.6,5.8-1.9,11.2c1.3,4.2,4.4,6.7,4.6,6.5
		s-2.5-2.7-2.2-6.1c0.3-2.6,2.4-5.5,4.1-5.3c0.1,0,0.5,0.1,0.9,0.4c1.7,1.4,1,4.5,1.2,6.9c0.6,5.6,2.4,9.8,2.8,9.8
		c0.5-0.1-1-6,0.9-13.6c0.5-2,1.3-4.2,1.7-4.1c0.6,0.1-0.3,3.9,0.9,9.4c0.7,3.1,1.3,3.7,1.7,6.7c0.4,3.4-0.1,5.6,0.2,5.6
		c0.4,0.1,1.9-3.6,2.3-7.9c0.3-3.6-0.4-4.6,0.2-7.9c0.4-2.4,1.5-5.9,2.5-5.9c1.2,0.1,1.8,5.8,2,9.1c0.2,5.6-0.7,9.4-0.4,9.4
		c0.4,0.1,3.1-6.1,3-11.1c0-0.5-0.1-2.2,0.9-4c0.3-0.6,1-1.8,1.9-1.8c1.5,0,2.9,3.7,3.4,6.5c0.7,4-0.4,6.4,0.1,6.6
		C52.6,216.8,57,210.6,56.6,203.4z M33,186.6c-1.3-0.6-1.9-2.3-1.7-2.5c0.2-0.2,0.8,0.5,2.4,1.2c1.4,0.6,2.2,0.6,2.2,0.8
		C36,186.5,34.3,187.2,33,186.6z M43.6,187c-1.5,0.6-3.4-0.1-3.4-0.4c0-0.2,0.9-0.2,2.6-0.8c1.9-0.7,2.5-1.4,2.8-1.2
		C45.8,184.7,45.1,186.4,43.6,187z"/>
	<g class="st5">
		<g>
			<path class="st6" d="M91.6,115.6c-0.1-2,0.1-5.6-2.1-6.8c-1.3-0.7-2.4,0-4.6-0.5c-1.7-0.4-4.7-1.7-5.5-4c-0.9-2.7,2-4.3,2.2-10.6
				c0-0.4,0-0.7,0-0.7c0-1.9-0.5-2.3-0.7-4.1c-0.2-1.5,0.1-2-0.4-2.9c-0.2-0.3-0.3-0.6-0.5-0.9c-1.1,0.3-2.4,0.7-4,1.2
				c-8.7,2.7-9.5,3.6-11.7,2.9c-2.5-0.8-1.9-2.1-6-4.7c-0.9-0.6-1.8-1-2.7-1.5c-0.4,0.5-0.7,1.1-1.1,1.7c-0.2,0.3-0.8,1-0.9,1.9
				C53,93.4,53,94.3,53,94.3c0.5,7.2,1.5,8.3,0.2,9.8c-0.9,1.1-2.8,2.2-4.8,2.3c-0.4,0-1.2-0.3-2.3-0.2c0,0-0.8,0.1-1.5,0.3
				c-1.9,0.6-4.8,6.9-2.5,13.5c1.7,5.1,5.8,8.1,6.1,7.9c0.3-0.2-3.3-3.3-2.8-7.4c0.4-3.2,3.1-6.6,5.3-6.4c0.2,0,0.6,0.1,1.2,0.5
				c2.3,1.7,1.3,5.4,1.6,8.3c0.8,6.7,3.2,11.9,3.7,11.8c0.6-0.1-1.3-7.3,1.2-16.4c0.7-2.5,1.7-5.1,2.3-5c0.8,0.1-0.4,4.7,1.2,11.4
				c0.9,3.7,1.7,4.4,2.2,8.1c0.5,4.1-0.2,6.7,0.2,6.8c0.5,0.1,2.6-4.3,3.1-9.6c0.4-4.3-0.6-5.6,0.2-9.5c0.6-2.9,2-7.2,3.3-7.1
				c1.6,0.1,2.4,7,2.6,11c0.3,6.7-0.9,11.3-0.5,11.4c0.5,0.1,4.1-7.3,3.9-13.4c0-0.6-0.1-2.7,1.2-4.8c0.5-0.7,1.4-2.1,2.5-2.1
				c2,0,3.8,4.5,4.5,7.9c0.9,4.9-0.6,7.8,0.1,8C86.3,131.8,92.1,124.3,91.6,115.6z M60.5,95.3c-1.7-0.7-2.5-2.7-2.2-3
				c0.3-0.2,1,0.7,3.2,1.5c1.9,0.8,2.9,0.7,2.9,1C64.4,95.3,62.2,96.1,60.5,95.3z M74.5,95.8c-2,0.7-4.5-0.1-4.5-0.5
				c0-0.3,1.2-0.2,3.4-1c2.5-0.8,3.4-1.7,3.6-1.5C77.4,93.1,76.5,95.1,74.5,95.8z"/>
		</g>
	</g>
	<path class="st4" d="M226.7,195c-0.1-1.9,0.1-5.4-1.9-6.6c-1.2-0.7-2.2,0-4.3-0.5c-1.6-0.4-4.4-1.7-5.1-3.9
		c-0.9-2.6,1.9-4.2,2-10.3c0-0.4,0-0.7,0-0.7c0-1.8-0.4-2.2-0.6-4c-0.2-1.4,0.1-1.9-0.4-2.8c-4.5-8.6-10.5-9.5-10.5-9.5
		c-3.8-0.4-6.8,1.6-8.6,2.7c-1.3,0.9-3.6,2.7-5.2,5.6c-0.2,0.3-0.7,0.9-0.8,1.8c-0.8,6.4-0.7,7.4-0.7,7.4c0.2,2.3,0.3,3.9,0.5,5.1
		c1.8-0.2,4.2-0.5,6.6,0.5c2.4,1,4.2,3.1,4,3.4c-0.1,0.2-1.1-0.3-2.3-0.8c-2.9-1.1-5.7-1.2-8-1.2c0.1,1.2,0,1.8-0.5,2.5
		c-0.9,1-2.6,2.1-4.5,2.2c-0.4,0-1.1-0.3-2.1-0.2c0,0-0.8,0.1-1.4,0.3c-1.8,0.6-4.5,6.7-2.4,13.1c1.6,4.9,5.4,7.8,5.7,7.6
		s-3.1-3.2-2.7-7.2c0.3-3.1,2.9-6.4,5-6.2c0.2,0,0.6,0.1,1.1,0.5c2.1,1.6,1.2,5.2,1.5,8c0.8,6.5,3,11.5,3.5,11.4
		c0.6-0.1-1.2-7.1,1.1-15.9c0.6-2.4,1.6-4.9,2.1-4.8c0.7,0.1-0.3,4.6,1.1,11c0.8,3.6,1.6,4.3,2,7.8c0.5,4-0.2,6.5,0.2,6.6
		c0.5,0.1,2.4-4.2,2.9-9.3c0.4-4.2-0.5-5.4,0.2-9.2c0.5-2.8,1.9-6.9,3.1-6.9c1.5,0.1,2.3,6.8,2.5,10.7c0.3,6.5-0.8,11-0.5,11
		c0.4,0.1,3.9-7.1,3.7-13c0-0.5-0.1-2.6,1.1-4.6c0.4-0.7,1.3-2,2.3-2c1.9,0,3.6,4.3,4.2,7.6c0.9,4.7-0.5,7.5,0.1,7.7
		C221.7,210.6,227.1,203.4,226.7,195z M197.4,175.3c-1.6-0.7-2.4-2.6-2-2.9c0.2-0.2,1,0.6,3,1.5c1.8,0.7,2.8,0.7,2.8,1
		C201.1,175.2,199.1,176,197.4,175.3z M210.6,175.8c-1.9,0.7-4.2-0.1-4.2-0.5c0-0.3,1.1-0.2,3.2-1c2.3-0.8,3.1-1.7,3.4-1.5
		C213.3,173.2,212.4,175.1,210.6,175.8z"/>
	<path class="st4" d="M65.9,84.7c1.9,0.5,3.2-1.5,7.1-4.1c0.9-0.6,4-1.9,5-3.3c0.1-0.2,0.4-0.6,0.2-0.9c-0.2-0.3-0.6-0.1-1.5-0.3
		c-0.7-0.2-2.5-0.8-2.5-0.8c-0.2,0-0.3,0-0.6-0.1c-0.8-0.2-1.3-0.5-2.3-0.7c-0.5-0.1-0.8-0.2-1.5-0.3c-3.4-0.6-5.2,1.1-8.3,0
		c-0.5-0.2-0.8-0.5-1.1-0.3c-0.6,0.4-0.1,2.4,0.2,3.3c0.5,1.9,1.5,5,4.4,7C65.3,84.5,65.6,84.6,65.9,84.7z"/>
	<path class="st4" d="M82,78.2c-1-2.2-1.3-2.9-1.7-3.2c0,0-0.1-0.1-0.2-0.1c-0.2,0-0.3,0-0.4,0.1c-0.4,0.9-1,2.2-2.2,3.4
		c-1.4,1.6-2,1.3-5,3.3c-3.8,2.6-5.2,4.7-7.1,4.1c-0.4-0.1-0.8-0.3-1.1-0.6c-4-3.1-5.5-11.6-5.3-12.8c-0.2-0.1-0.5,0.1-0.8,0.2
		c-1.7,0.7-2.5,2.1-3.6,3.4c-0.7,1-1.6,1.8-1.6,1.8c-1.4,1.4-1.6,1.5-1.6,1.7c-0.1,1.2,3.4,1.9,7.2,4.3c4.2,2.6,3.6,3.9,6,4.7
		c2.2,0.7,3-0.3,11.7-2.9c4.7-1.4,6.9-1.9,7.2-3.4C83.7,81.6,83.1,80.5,82,78.2z"/>
	<path class="st4" d="M185.3,177.5c-0.2,0.3-0.1,0.7,0.1,1.6c0.3,1.1,0.4,1.7,0.7,2.1c0.6,0.7,1.8,0.3,3.9,0c1.4-0.2,4-0.5,6.6,0
		c2.2,0.4,3.5,1.3,3.6,1.2c0.1-0.2-1.5-1.7-3.9-2.3c-3-0.8-5.6,0.3-6.1-0.7c-0.3-0.5,0.3-1,0-1.7c-0.4-0.6-1.3-0.7-2.4-0.7
		C186.8,176.9,185.6,176.8,185.3,177.5z"/>
	<g class="st5">
		<g>
			<path class="st6" d="M139.5,67.8c0-1,0.1-2.8-1-3.3c-0.7-0.4-1.2,0-2.3-0.2c-0.8-0.2-2.3-0.9-2.7-2c-0.5-1.3,1-2.1,1.1-5.2
				c0-0.2,0-0.4,0-0.4c0-0.9-0.2-1.1-0.3-2c-0.1-0.7,0-1-0.2-1.4c-0.1-0.1-0.2-0.3-0.2-0.4c-0.5,0.2-1.2,0.4-2,0.6
				c-4.3,1.3-4.7,1.8-5.8,1.4c-1.2-0.4-0.9-1-3-2.3c-0.5-0.3-0.9-0.5-1.3-0.7c-0.2,0.3-0.4,0.5-0.5,0.8c-0.1,0.2-0.4,0.5-0.4,0.9
				c-0.4,3.3-0.4,3.7-0.4,3.7c0.2,3.6,0.7,4.1,0.1,4.8c-0.4,0.5-1.4,1.1-2.4,1.1c-0.2,0-0.6-0.1-1.1-0.1c0,0-0.4,0-0.8,0.1
				c-0.9,0.3-2.3,3.4-1.2,6.6c0.9,2.5,2.9,4,3,3.9s-1.6-1.6-1.4-3.6c0.2-1.6,1.5-3.2,2.6-3.1c0.1,0,0.3,0,0.6,0.2
				c1.1,0.8,0.6,2.6,0.8,4.1c0.4,3.3,1.6,5.8,1.8,5.8c0.3-0.1-0.6-3.6,0.6-8.1c0.3-1.2,0.8-2.5,1.1-2.5c0.4,0.1-0.2,2.3,0.6,5.6
				c0.4,1.8,0.9,2.2,1.1,4c0.2,2-0.1,3.3,0.1,3.3c0.3,0,1.3-2.1,1.5-4.7c0.2-2.1-0.3-2.7,0.1-4.7c0.3-1.4,1-3.5,1.6-3.5
				c0.8,0,1.2,3.4,1.3,5.4c0.2,3.3-0.4,5.6-0.3,5.6c0.2,0,2-3.6,1.9-6.6c0-0.3-0.1-1.3,0.6-2.4c0.2-0.3,0.7-1,1.2-1
				c1,0,1.9,2.2,2.2,3.9c0.5,2.4-0.3,3.8,0.1,3.9C136.9,75.8,139.7,72.1,139.5,67.8z M124.2,57.8c-0.9-0.4-1.2-1.3-1.1-1.5
				c0.1-0.1,0.5,0.3,1.6,0.7c0.9,0.4,1.4,0.4,1.4,0.5C126.1,57.8,125,58.2,124.2,57.8z M131,58.1c-1,0.4-2.2,0-2.2-0.2
				c0-0.1,0.6-0.1,1.7-0.5c1.2-0.4,1.6-0.8,1.8-0.7C132.5,56.7,132,57.7,131,58.1z"/>
		</g>
	</g>
	<path class="st4" d="M126.8,52.6c0.9,0.3,1.6-0.7,3.5-2c0.5-0.3,2-0.9,2.4-1.6c0.1-0.1,0.2-0.3,0.1-0.4c-0.1-0.2-0.3-0.1-0.8-0.2
		c-0.3-0.1-1.3-0.4-1.3-0.4c-0.1,0-0.1,0-0.3,0c-0.4-0.1-0.7-0.2-1.2-0.4c-0.2-0.1-0.4-0.1-0.8-0.2c-1.7-0.3-2.6,0.5-4.1,0
		c-0.2-0.1-0.4-0.2-0.6-0.1c-0.3,0.2,0,1.2,0.1,1.6c0.3,0.9,0.7,2.5,2.2,3.4C126.5,52.5,126.7,52.6,126.8,52.6z"/>
	<path class="st4" d="M134.8,49.4c-0.5-1.1-0.6-1.4-0.8-1.6c0,0-0.1,0-0.1-0.1c-0.1,0-0.1,0-0.2,0c-0.2,0.4-0.5,1.1-1.1,1.7
		c-0.7,0.8-1,0.7-2.4,1.6c-1.9,1.3-2.5,2.3-3.5,2c-0.2-0.1-0.4-0.2-0.6-0.3c-1.9-1.5-2.7-5.7-2.6-6.3c-0.1,0-0.2,0.1-0.4,0.1
		c-0.8,0.3-1.2,1-1.8,1.7c-0.4,0.5-0.8,0.8-0.8,0.8c-0.7,0.7-0.8,0.7-0.8,0.9c-0.1,0.6,1.7,0.9,3.5,2.1c2,1.3,1.7,1.9,3,2.3
		c1.1,0.3,1.5-0.1,5.8-1.4c2.3-0.7,3.4-0.9,3.6-1.7C135.6,51.1,135.3,50.5,134.8,49.4z"/>
	<path class="st4" d="M235.1,127.6c0-0.9,0.1-2.7-1-3.2c-0.6-0.3-1.1,0-2.1-0.2c-0.8-0.2-2.2-0.8-2.5-1.9c-0.4-1.3,0.9-2,1-5
		c0-0.2,0-0.3,0-0.3c0-0.9-0.2-1.1-0.3-1.9c-0.1-0.7,0-0.9-0.2-1.4c-2.2-4.2-5.2-4.7-5.2-4.7c-1.9-0.2-3.4,0.8-4.2,1.3
		c-0.6,0.4-1.8,1.3-2.6,2.8c-0.1,0.2-0.3,0.5-0.4,0.9c-0.4,3.2-0.4,3.6-0.4,3.6c0.1,1.1,0.2,1.9,0.3,2.5c0.9-0.1,2.1-0.2,3.2,0.2
		c1.2,0.5,2.1,1.5,2,1.7c-0.1,0.1-0.5-0.2-1.1-0.4c-1.4-0.5-2.8-0.6-3.9-0.6c0.1,0.6,0,0.9-0.3,1.2c-0.4,0.5-1.3,1-2.2,1.1
		c-0.2,0-0.5-0.1-1.1-0.1c0,0-0.4,0-0.7,0.1c-0.9,0.3-2.2,3.3-1.2,6.4c0.8,2.4,2.7,3.9,2.8,3.8c0.1-0.1-1.5-1.6-1.3-3.5
		c0.2-1.5,1.4-3.1,2.5-3c0.1,0,0.3,0,0.6,0.2c1,0.8,0.6,2.6,0.8,4c0.4,3.2,1.5,5.7,1.7,5.6c0.3,0-0.6-3.5,0.6-7.8
		c0.3-1.2,0.8-2.4,1.1-2.4c0.4,0.1-0.2,2.3,0.6,5.4c0.4,1.8,0.8,2.1,1,3.9c0.2,2-0.1,3.2,0.1,3.2c0.3,0,1.2-2.1,1.4-4.6
		c0.2-2.1-0.3-2.6,0.1-4.5c0.3-1.4,0.9-3.4,1.5-3.4c0.7,0,1.1,3.3,1.2,5.2c0.1,3.2-0.4,5.4-0.3,5.4c0.2,0,1.9-3.5,1.8-6.4
		c0-0.3-0.1-1.3,0.6-2.3c0.2-0.3,0.6-1,1.2-1c0.9,0,1.8,2.1,2.1,3.8c0.4,2.3-0.3,3.7,0.1,3.8C232.6,135.3,235.3,131.8,235.1,127.6z
		 M220.7,118c-0.8-0.3-1.2-1.3-1-1.4c0.1-0.1,0.5,0.3,1.5,0.7c0.9,0.4,1.4,0.3,1.4,0.5C222.5,117.9,221.5,118.3,220.7,118z
		 M227.1,118.2c-0.9,0.3-2.1,0-2.1-0.2c0-0.1,0.6-0.1,1.6-0.5c1.1-0.4,1.5-0.8,1.7-0.7C228.5,116.9,228.1,117.9,227.1,118.2z"/>
	<path class="st4" d="M214.7,119c-0.1,0.1,0,0.4,0.1,0.8c0.1,0.5,0.2,0.8,0.4,1c0.3,0.4,0.9,0.1,1.9,0c0.7-0.1,1.9-0.2,3.2,0
		c1.1,0.2,1.7,0.6,1.7,0.6c0-0.1-0.8-0.8-1.9-1.1c-1.5-0.4-2.8,0.2-3-0.3c-0.1-0.3,0.2-0.5,0-0.8s-0.6-0.3-1.2-0.4
		C215.4,118.7,214.9,118.7,214.7,119z"/>
	<path class="st4" d="M179.6,236.3c0-1.1,0.1-3.1-1-3.7c-0.7-0.4-1.2,0-2.3-0.3c-0.9-0.2-2.3-1-2.7-2.2c-0.5-1.5,1-2.3,1.1-5.8
		c0-0.2,0-0.4,0-0.4c0-1-0.2-1.3-0.3-2.2c-0.1-0.8,0-1.1-0.2-1.6c-2.4-4.9-5.6-5.3-5.6-5.3c-2-0.2-3.6,0.9-4.6,1.5
		c-0.7,0.5-1.9,1.5-2.8,3.2c-0.1,0.2-0.4,0.5-0.4,1c-0.4,3.6-0.4,4.1-0.4,4.1c0.2,3.9,0.7,4.5,0.1,5.3c-0.5,0.6-1.4,1.2-2.4,1.3
		c-0.2,0-0.6-0.2-1.1-0.1c0,0-0.4,0-0.8,0.2c-0.9,0.3-2.4,3.8-1.3,7.4c0.9,2.8,2.9,4.4,3.1,4.3c0.1-0.1-1.6-1.8-1.4-4
		c0.2-1.7,1.6-3.6,2.7-3.5c0.1,0,0.3,0,0.6,0.3c1.1,0.9,0.6,2.9,0.8,4.5c0.4,3.7,1.6,6.5,1.9,6.4c0.3-0.1-0.7-4,0.6-8.9
		c0.3-1.3,0.8-2.8,1.1-2.7c0.4,0.1-0.2,2.6,0.6,6.2c0.4,2,0.9,2.4,1.1,4.4c0.2,2.3-0.1,3.7,0.1,3.7c0.3,0.1,1.3-2.3,1.5-5.2
		c0.2-2.4-0.3-3,0.1-5.2c0.3-1.6,1-3.9,1.6-3.9c0.8,0.1,1.2,3.8,1.3,6c0.2,3.7-0.5,6.2-0.3,6.2s2.1-4,2-7.3c0-0.3-0.1-1.5,0.6-2.6
		c0.2-0.4,0.7-1.2,1.3-1.2c1,0,1.9,2.4,2.2,4.3c0.5,2.7-0.3,4.2,0.1,4.4C176.9,245.2,179.8,241.1,179.6,236.3z M164,225.3
		c-0.9-0.4-1.3-1.5-1.1-1.6c0.1-0.1,0.5,0.4,1.6,0.8c1,0.4,1.5,0.4,1.5,0.5C165.9,225.2,164.9,225.7,164,225.3z M171,225.5
		c-1,0.4-2.3,0-2.3-0.3c0-0.2,0.6-0.1,1.7-0.5c1.2-0.5,1.7-0.9,1.8-0.8C172.4,224.1,172,225.2,171,225.5z"/>
	<path class="st4" d="M44.8,36.2c0-1.1,0.1-3.1-1-3.7c-0.7-0.4-1.2,0-2.3-0.3c-0.9-0.2-2.3-1-2.7-2.2c-0.5-1.5,1-2.3,1.1-5.8
		c0-0.2,0-0.4,0-0.4c0-1-0.2-1.3-0.3-2.2c-0.1-0.8,0-1.1-0.2-1.6c-2.4-4.9-5.6-5.3-5.6-5.3c-2-0.2-3.6,0.9-4.6,1.5
		c-0.7,0.5-1.9,1.5-2.8,3.2c-0.1,0.2-0.4,0.5-0.4,1c-0.4,3.6-0.4,4.1-0.4,4.1c0.2,3.9,0.7,4.5,0.1,5.3c-0.5,0.6-1.4,1.2-2.4,1.3
		c-0.2,0-0.6-0.2-1.1-0.1c0,0-0.4,0-0.8,0.2c-0.9,0.3-2.4,3.8-1.3,7.4c0.9,2.8,2.9,4.4,3.1,4.3c0.1-0.1-1.6-1.8-1.4-4
		c0.2-1.7,1.6-3.6,2.7-3.5c0.1,0,0.3,0,0.6,0.3c1.1,0.9,0.6,2.9,0.8,4.5c0.4,3.7,1.6,6.5,1.9,6.4s-0.7-4,0.6-8.9
		c0.3-1.3,0.8-2.8,1.1-2.7c0.4,0.1-0.2,2.6,0.6,6.2c0.4,2,0.9,2.4,1.1,4.4c0.2,2.3-0.1,3.7,0.1,3.7c0.3,0.1,1.3-2.3,1.5-5.2
		c0.2-2.4-0.3-3,0.1-5.2c0.3-1.6,1-3.9,1.6-3.9c0.8,0.1,1.2,3.8,1.3,6c0.2,3.7-0.5,6.2-0.3,6.2s2.1-4,2-7.3c0-0.3-0.1-1.5,0.6-2.6
		c0.2-0.4,0.7-1.2,1.3-1.2c1,0,1.9,2.4,2.2,4.3c0.5,2.7-0.3,4.2,0.1,4.4C42.2,45,45,40.9,44.8,36.2z M29.2,25.1
		c-0.9-0.4-1.3-1.5-1.1-1.6c0.1-0.1,0.5,0.4,1.6,0.8c1,0.4,1.5,0.4,1.5,0.5C31.2,25.1,30.1,25.5,29.2,25.1z M36.2,25.4
		c-1,0.4-2.3,0-2.3-0.3c0-0.2,0.6-0.1,1.7-0.5c1.2-0.5,1.7-0.9,1.8-0.8C37.7,23.9,37.3,25,36.2,25.4z"/>
	<path class="st4" d="M104.2,178.7c0-1.1,0.1-3.1-1-3.7c-0.7-0.4-1.2,0-2.3-0.3c-0.9-0.2-2.3-1-2.7-2.2c-0.5-1.5,1-2.3,1.1-5.8
		c0-0.2,0-0.4,0-0.4c0-1-0.2-1.3-0.3-2.2c-0.1-0.8,0-1.1-0.2-1.6c-2.4-4.9-5.6-5.3-5.6-5.3c-2-0.2-3.6,0.9-4.6,1.5
		c-0.7,0.5-1.9,1.5-2.8,3.2c-0.1,0.2-0.4,0.5-0.4,1C85,166.5,85,167,85,167c0.2,3.9,0.7,4.5,0.1,5.3c-0.5,0.6-1.4,1.2-2.4,1.3
		c-0.2,0-0.6-0.2-1.1-0.1c0,0-0.4,0-0.8,0.2c-0.9,0.3-2.4,3.8-1.3,7.4c0.9,2.8,2.9,4.4,3.1,4.3c0.1-0.1-1.6-1.8-1.4-4
		c0.2-1.7,1.6-3.6,2.7-3.5c0.1,0,0.3,0,0.6,0.3c1.1,0.9,0.6,2.9,0.8,4.5c0.4,3.7,1.6,6.5,1.9,6.4s-0.7-4,0.6-8.9
		c0.3-1.3,0.8-2.8,1.1-2.7c0.4,0.1-0.2,2.6,0.6,6.2c0.4,2,0.9,2.4,1.1,4.4c0.2,2.3-0.1,3.7,0.1,3.7c0.3,0.1,1.3-2.3,1.5-5.2
		c0.2-2.4-0.3-3,0.1-5.2c0.3-1.6,1-3.9,1.6-3.9c0.8,0.1,1.2,3.8,1.3,6c0.2,3.7-0.5,6.2-0.3,6.2s2.1-4,2-7.3c0-0.3-0.1-1.5,0.6-2.6
		c0.2-0.4,0.7-1.2,1.3-1.2c1,0,1.9,2.4,2.2,4.3c0.5,2.7-0.3,4.2,0.1,4.4C101.6,187.5,104.5,183.4,104.2,178.7z M88.6,167.6
		c-0.9-0.4-1.3-1.5-1.1-1.6c0.1-0.1,0.5,0.4,1.6,0.8c1,0.4,1.5,0.4,1.5,0.5C90.6,167.6,89.5,168,88.6,167.6z M95.7,167.9
		c-1,0.4-2.3,0-2.3-0.3c0-0.2,0.6-0.1,1.7-0.5c1.2-0.5,1.7-0.9,1.8-0.8C97.1,166.4,96.7,167.5,95.7,167.9z"/>
</g>
</svg>
